<svg xmlns="http://www.w3.org/2000/svg" viewBox="0 0 200 200" class="orchestr8-logo">
    <defs>
        <linearGradient id="grad1" x1="0%" y1="0%" x2="100%" y2="100%">
            <stop offset="0%" style="stop-color:#6366f1;stop-opacity:1" />
            <stop offset="100%" style="stop-color:#06b6d4;stop-opacity:1" />
        </linearGradient>
    </defs>

    <g transform="translate(100,100)">
        <!-- Base Circle -->
        <circle r="80" fill="url(#grad1)" opacity="0.15"/>

        <!-- Octopus/Pod Core -->
        <g transform="scale(0.6)">
            <path d="M0,-40 Q20,-30 40,-40 Q30,-20 40,0 Q20,10 0,0 Q-20,10 -40,0 Q-30,-20 -40,-40 Q-20,-30 0,-40"
                  fill="url(#grad1)"/>

            <!-- Containers/Pods -->
            <g class="pods">
                <circle cx="-45" cy="-45" r="6" fill="#06b6d4"/>
                <circle cx="45" cy="-45" r="6" fill="#06b6d4"/>
                <circle cx="-45" cy="45" r="6" fill="#06b6d4"/>
                <circle cx="45" cy="45" r="6" fill="#06b6d4"/>
                <circle cx="0" cy="-60" r="6" fill="#06b6d4"/>
                <circle cx="-60" cy="0" r="6" fill="#06b6d4"/>
                <circle cx="60" cy="0" r="6" fill="#06b6d4"/>
                <circle cx="0" cy="60" r="6" fill="#06b6d4"/>
            </g>
        </g>

        <!-- Connections -->
        <path d="M-30,-30 L30,30 M30,-30 L-30,30"
              stroke="#06b6d4"
              stroke-width="2"
              opacity="0.3"/>
    </g>
</svg>